<svg width="28" height="29" viewBox="0 0 28 29" fill="none" xmlns="http://www.w3.org/2000/svg">
<path fill-rule="evenodd" clip-rule="evenodd" d="M27.0611 10.3443C26.6538 11.6166 26.1162 12.8422 25.457 14.0011C26.1177 15.1592 26.657 16.3841 27.0661 17.6558C28.0624 20.8416 27.8875 24.0158 25.8069 26.1264C23.7262 28.2371 20.5917 28.4185 17.4471 27.4136C16.1912 27.0009 14.9814 26.4562 13.8374 25.7885C12.6022 26.5002 11.3915 27.0451 10.2299 27.4185C7.08665 28.4277 3.95187 28.2505 1.86836 26.1427C-0.215152 24.0348 -0.394276 20.8594 0.597667 17.6738C1.005 16.4015 1.54263 15.1759 2.20176 14.0169C1.54106 12.8589 1.00177 11.634 0.592707 10.3623C-0.402019 7.178 -0.228744 4.00229 1.85191 1.89161C3.93255 -0.219062 7.06709 -0.398909 10.2117 0.604482C11.3753 0.976283 12.5852 1.51954 13.8214 2.22958C14.9645 1.56027 16.1736 1.01397 17.4289 0.599586C20.5737 -0.408073 23.7069 -0.230919 25.7904 1.87537C27.8739 3.98322 28.0531 7.15869 27.0611 10.3443ZM10.8984 23.8168C9.7005 22.8979 8.49639 21.8324 7.3045 20.6281C6.17454 19.4892 5.12182 18.2743 4.15352 16.9916C3.90152 17.552 3.69465 18.0921 3.53291 18.6118C2.70988 21.2595 3.1204 23.0021 4.04435 23.9369C4.96676 24.8716 6.68903 25.2851 9.29991 24.4477C9.84561 24.2712 10.38 24.0605 10.8999 23.8168L10.8984 23.8168ZM10.8851 4.20521C10.3653 3.96288 9.83113 3.75342 9.28575 3.57804C6.6722 2.74421 4.95203 3.16006 4.02935 4.09606C3.10667 5.0305 2.70005 6.77524 3.52668 9.42023C3.68912 9.93977 3.89673 10.4801 4.14948 11.0411C5.11604 9.75716 6.16711 8.54081 7.29552 7.40038C8.41967 6.25516 9.61891 5.18663 10.8851 4.20521ZM21.8315 14.0036C20.7504 12.4239 19.5275 10.9489 18.1783 9.59736C16.8424 8.23239 15.3847 6.9955 13.8239 5.90247C12.2647 6.99663 10.8087 8.23445 9.4745 9.60015C7.9936 11.1024 6.78352 12.5889 5.82732 14.0145C6.90837 15.5941 8.1313 17.0692 9.48049 18.4207C10.8165 19.7851 12.2742 21.0215 13.8349 22.114C15.3957 21.022 16.8519 19.784 18.1843 18.4164C19.5317 17.0625 20.7526 15.5853 21.8315 14.0036ZM16.1377 14.0075C16.1381 14.6277 15.8953 15.2226 15.4627 15.6614C15.0301 16.1003 14.4432 16.347 13.831 16.3475C13.2188 16.3479 12.6315 16.1019 12.1983 15.6637C11.7651 15.2254 11.5215 14.6308 11.5211 14.0106C11.5207 13.3904 11.7635 12.7955 12.1961 12.3566C12.6287 11.9178 13.2156 11.671 13.8278 11.6706C14.44 11.6702 15.0273 11.9162 15.4605 12.3544C15.8937 12.7927 16.1373 13.3873 16.1377 14.0075ZM23.616 4.08121C22.692 3.14646 20.9713 2.73451 18.3589 3.57188C17.846 3.73644 17.3127 3.94674 16.7589 4.20278C17.9598 5.12175 19.1624 6.1857 20.3543 7.39152C21.4842 8.52992 22.5369 9.74431 23.5053 11.0264C23.745 10.4999 23.9523 9.95878 24.1259 9.40625C24.9489 6.76015 24.5384 5.01596 23.616 4.08121ZM24.1321 18.5978C23.9697 18.0783 23.7621 17.5385 23.5093 16.9785C22.6022 18.192 21.552 19.4118 20.3633 20.6192C19.2391 21.7645 18.0399 22.8314 16.7737 23.8129C17.3269 24.0681 17.86 24.2772 18.373 24.44C20.9866 25.2754 22.7068 24.8596 23.6294 23.9236C24.5521 22.9876 24.9587 21.2444 24.1321 18.5978Z" fill="white"/>
</svg>
