<svg width="72" height="72" viewBox="0 0 72 72" fill="none" xmlns="http://www.w3.org/2000/svg">
<rect x="36" y="36" width="36" height="36" rx="3" fill="#8E6BE1"/>
<path d="M54.7501 62.6597L60.9341 55.5617C63.6111 52.6777 63.4931 49.0557 61.6881 46.8567C60.7901 45.7617 59.4821 45.0407 57.9681 45.0017C56.6751 44.9677 55.3161 45.4317 54.0051 46.4437C52.6901 45.4317 51.3271 44.9677 50.0321 45.0017C48.5171 45.0417 47.2071 45.7617 46.3081 46.8567C44.5021 49.0577 44.3931 52.6797 47.0801 55.5627L53.2631 62.6597C53.4531 62.8757 53.7231 62.9997 54.0061 62.9997C54.1469 62.9986 54.2859 62.9677 54.4139 62.9091C54.542 62.8505 54.6562 62.7655 54.7491 62.6597H54.7501Z" fill="#F3EEFF"/>
<rect y="36" width="36" height="36" rx="3" fill="#8E6BE1"/>
<path d="M19.849 45.7196C19.165 44.0936 16.835 44.0936 16.151 45.7196L14.397 49.8866L9.84499 50.2476C8.06999 50.3876 7.34999 52.5786 8.70299 53.7246L12.171 56.6616L11.111 61.0536C10.698 62.7666 12.583 64.1206 14.103 63.2026L18 60.8496L21.897 63.2036C23.417 64.1216 25.302 62.7676 24.889 61.0536L23.829 56.6636L27.297 53.7256C28.65 52.5796 27.93 50.3896 26.155 50.2486L21.603 49.8886L19.849 45.7196Z" fill="#FFC001"/>
<rect x="18" width="36" height="36" rx="3" fill="#FFC001"/>
<path d="M42.5037 7.99826C43.6204 7.9989 44.6969 8.41469 45.5241 9.16482C46.3513 9.91495 46.87 10.9458 46.9795 12.0571C47.0889 13.1684 46.7813 14.2807 46.1164 15.1778C45.4515 16.0749 44.4768 16.6927 43.3817 16.9113C43.8346 17.9926 44.0443 19.1603 43.996 20.3316C43.9476 21.503 43.6424 22.6494 43.1019 23.6898C42.5615 24.7301 41.799 25.639 40.8684 26.352C39.9378 27.065 38.8618 27.5648 37.7167 27.816C36.5715 28.0671 35.3852 28.0636 34.2416 27.8055C33.098 27.5474 32.0251 27.0411 31.0988 26.3224C30.1726 25.6038 29.4156 24.6903 28.8814 23.6467C28.3472 22.6031 28.049 21.4549 28.0077 20.2833L28.0027 19.9983L28.0077 19.7133C28.0421 18.7495 28.2504 17.7999 28.6227 16.9103C27.9507 16.7769 27.318 16.4918 26.7729 16.0768C26.2278 15.6617 25.7846 15.1277 25.4772 14.5154C25.1698 13.9031 25.0063 13.2287 24.9991 12.5436C24.9919 11.8586 25.1413 11.1809 25.4357 10.5623C25.7675 9.8665 26.2724 9.26762 26.9021 8.82304C27.5317 8.37845 28.2651 8.10306 29.0317 8.02326L29.2567 8.00526L29.5377 7.99826L29.7817 8.00726C30.8827 8.0755 31.9203 8.54576 32.6974 9.32872C33.4744 10.1117 33.9368 11.1528 33.9967 12.2543C35.3127 11.9133 36.6938 11.9133 38.0097 12.2543C38.0721 11.1048 38.5727 10.0229 39.4085 9.23128C40.2442 8.43962 41.3526 7.99836 42.5037 7.99826Z" fill="#8E6BE1"/>
</svg>
