<svg width="60" height="60" viewBox="0 0 60 60" fill="none" xmlns="http://www.w3.org/2000/svg">
<rect width="60" height="60" rx="30" fill="#FFC001"/>
<path d="M48.6364 29H50.5M30 11.7273V10M30 48V46.2727M44.9091 42.8182L43.0455 41.0909M44.9091 15.1818L43.0455 16.9091M15.0909 42.8182L16.9545 41.0909M15.0909 15.1818L16.9545 16.9091M9.5 29H11.3636M26.1833 24.8943L29.0887 19.1856C29.167 19.0222 29.2947 18.8833 29.4565 18.7858C29.6182 18.6883 29.807 18.6364 30 18.6364C30.193 18.6364 30.3818 18.6883 30.5435 18.7858C30.7053 18.8833 30.833 19.0222 30.9113 19.1856L33.8167 24.8943L40.3115 25.8149C41.1445 25.9324 41.4763 26.9273 40.8743 27.4973L36.1742 31.9364L37.2831 38.2081C37.4266 39.0147 36.5544 39.6279 35.809 39.2479L30 36.2856L24.191 39.2479C23.4456 39.6279 22.5734 39.0147 22.7169 38.2081L23.8258 31.9381L19.1257 27.4973C18.5237 26.9273 18.8555 25.9324 19.6885 25.8149L26.1833 24.8943Z" stroke="white" stroke-width="1.5" stroke-linecap="round" stroke-linejoin="round"/>
</svg>
