<svg width="13" height="13" viewBox="0 0 13 13" fill="none" xmlns="http://www.w3.org/2000/svg">
<path fill-rule="evenodd" clip-rule="evenodd" d="M3.04637 2.39633C2.14775 2.80691 1.48962 3.78408 1.48962 4.9492C1.48962 6.13925 1.97712 7.05683 2.67479 7.84333C3.25058 8.49116 3.94717 9.0285 4.62642 9.55175C4.78819 9.67633 4.94798 9.80055 5.10579 9.92441C5.39071 10.1492 5.64475 10.3458 5.89012 10.4894C6.1355 10.6329 6.33212 10.6979 6.50004 10.6979C6.66796 10.6979 6.86512 10.6329 7.10996 10.4894C7.35533 10.3458 7.60937 10.1492 7.89429 9.92441C8.0521 9.80019 8.21189 9.67615 8.37366 9.55229C9.05291 9.02795 9.7495 8.49116 10.3253 7.84333C11.0235 7.05683 11.5105 6.13925 11.5105 4.9492C11.5105 3.78462 10.8523 2.80691 9.95371 2.39633C9.08054 1.99712 7.90729 2.10275 6.79254 3.26137C6.75464 3.30069 6.70921 3.33196 6.65895 3.35332C6.6087 3.37469 6.55465 3.38569 6.50004 3.38569C6.44543 3.38569 6.39138 3.37469 6.34113 3.35332C6.29087 3.33196 6.24544 3.30069 6.20754 3.26137C5.09279 2.10275 3.91954 1.99712 3.04637 2.39633ZM6.50004 2.41583C5.24771 1.29458 3.84533 1.1375 2.70837 1.65695C1.50912 2.20675 0.677124 3.48075 0.677124 4.94975C0.677124 6.39329 1.27837 7.49504 2.06758 8.38337C2.69917 9.09458 3.47212 9.68987 4.15517 10.2153C4.31044 10.3345 4.45958 10.4504 4.60258 10.563C4.88046 10.7819 5.17837 11.0148 5.48008 11.1914C5.78179 11.368 6.12629 11.511 6.50004 11.511C6.87379 11.511 7.21829 11.3674 7.52 11.1914C7.82225 11.0148 8.11962 10.7819 8.3975 10.563C8.5405 10.4504 8.68964 10.3345 8.84492 10.2153C9.52742 9.68987 10.3009 9.09404 10.9325 8.38337C11.7217 7.49504 12.323 6.39329 12.323 4.94975C12.323 3.48075 11.4915 2.20675 10.2917 1.65804C9.15475 1.13804 7.75237 1.29512 6.50004 2.41583Z" fill="black"/>
</svg>
