<svg width="24" height="28" viewBox="0 0 24 28" fill="none" xmlns="http://www.w3.org/2000/svg">
<path d="M12 5.6875C12.6213 5.6875 13.125 5.09987 13.125 4.375C13.125 3.65013 12.6213 3.0625 12 3.0625C11.3787 3.0625 10.875 3.65013 10.875 4.375C10.875 5.09987 11.3787 5.6875 12 5.6875Z" stroke="white" stroke-width="1.5" stroke-linecap="round" stroke-linejoin="round"/>
<path d="M12 15.3125C12.6213 15.3125 13.125 14.7249 13.125 14C13.125 13.2751 12.6213 12.6875 12 12.6875C11.3787 12.6875 10.875 13.2751 10.875 14C10.875 14.7249 11.3787 15.3125 12 15.3125Z" stroke="white" stroke-width="1.5" stroke-linecap="round" stroke-linejoin="round"/>
<path d="M12 24.9375C12.6213 24.9375 13.125 24.3499 13.125 23.625C13.125 22.9001 12.6213 22.3125 12 22.3125C11.3787 22.3125 10.875 22.9001 10.875 23.625C10.875 24.3499 11.3787 24.9375 12 24.9375Z" stroke="white" stroke-width="1.5" stroke-linecap="round" stroke-linejoin="round"/>
</svg>
