<svg width="39" height="39" viewBox="0 0 39 39" fill="none" xmlns="http://www.w3.org/2000/svg">
<path d="M19.5 26.3333C20.4566 27.7683 21.7379 28.9471 23.2583 29.75L19.5 33.5083L15.7416 29.75C17.2621 28.9471 18.5604 27.7683 19.5 26.3333ZM28.0416 18.1333C27.1355 18.1333 26.2665 18.4933 25.6257 19.134C24.985 19.7748 24.625 20.6438 24.625 21.55C24.625 22.4562 24.985 23.3252 25.6257 23.9659C26.2665 24.6067 27.1355 24.9667 28.0416 24.9667C28.9478 24.9667 29.8168 24.6067 30.4576 23.9659C31.0983 23.3252 31.4583 22.4562 31.4583 21.55C31.4583 20.6438 31.0983 19.7748 30.4576 19.134C29.8168 18.4933 28.9478 18.1333 28.0416 18.1333ZM10.9583 18.1333C10.0522 18.1333 9.18312 18.4933 8.54237 19.134C7.90162 19.7748 7.54165 20.6438 7.54165 21.55C7.54165 22.4562 7.90162 23.3252 8.54237 23.9659C9.18312 24.6067 10.0522 24.9667 10.9583 24.9667C11.8645 24.9667 12.7335 24.6067 13.3743 23.9659C14.015 23.3252 14.375 22.4562 14.375 21.55C14.375 20.6438 14.015 19.7748 13.3743 19.134C12.7335 18.4933 11.8645 18.1333 10.9583 18.1333ZM28.0416 13.8625C29.854 13.8625 31.592 14.5824 32.8735 15.8639C34.155 17.1454 34.875 18.8835 34.875 20.6958C34.875 22.5081 34.155 24.2462 32.8735 25.5277C31.592 26.8092 29.854 27.5292 28.0416 27.5292C26.2293 27.5292 24.4913 26.8092 23.2098 25.5277C21.9283 24.2462 21.2083 22.5081 21.2083 20.6958C21.2083 18.8835 21.9283 17.1454 23.2098 15.8639C24.4913 14.5824 26.2293 13.8625 28.0416 13.8625ZM10.9583 13.8625C12.7706 13.8625 14.5087 14.5824 15.7902 15.8639C17.0717 17.1454 17.7916 18.8835 17.7916 20.6958C17.7916 22.5081 17.0717 24.2462 15.7902 25.5277C14.5087 26.8092 12.7706 27.5292 10.9583 27.5292C9.146 27.5292 7.40792 26.8092 6.12642 25.5277C4.84492 24.2462 4.12498 22.5081 4.12498 20.6958C4.12498 18.8835 4.84492 17.1454 6.12642 15.8639C7.40792 14.5824 9.146 13.8625 10.9583 13.8625ZM2.82665 0.708328C5.83331 7.02916 3.66373 11.7442 1.6479 16.425C1.0329 17.7917 0.708313 19.2096 0.708313 20.6958C0.708313 23.4143 1.78822 26.0214 3.71047 27.9437C5.63272 29.8659 8.23984 30.9458 10.9583 30.9458C11.3171 30.9287 11.6758 30.9117 12.0346 30.8604L17.0912 35.9171L19.5 38.2917L21.9087 35.9171L26.9654 30.8604C27.3242 30.9117 27.6829 30.9287 28.0416 30.9458C30.7601 30.9458 33.3672 29.8659 35.2895 27.9437C37.2117 26.0214 38.2916 23.4143 38.2916 20.6958C38.2916 19.2096 37.9671 17.7917 37.3521 16.425C35.3362 11.7442 33.1666 7.02916 36.1733 0.708328C31.6633 4.2275 25.24 7.01208 19.5 7.02916C13.76 7.01208 7.33665 4.2275 2.82665 0.708328Z" fill="#8E6BE1"/>
</svg>
