<svg width="36" height="41" viewBox="0 0 36 41" fill="none" xmlns="http://www.w3.org/2000/svg">
<path opacity="0.5" d="M0.5 7.95C0.5 5.43 0.5 4.17 1.13583 3.207C1.69509 2.36031 2.58744 1.67192 3.685 1.2405C4.93333 0.75 6.56667 0.75 9.83333 0.75H26.1667C29.4333 0.75 31.0667 0.75 32.315 1.2405C33.4126 1.67192 34.3049 2.36031 34.8642 3.207C35.5 4.17 35.5 5.43 35.5 7.95V37.8862C35.5 38.9797 35.5 39.5265 35.2054 39.8258C35.0781 39.9559 34.9157 40.0631 34.7294 40.1401C34.543 40.217 34.3372 40.2618 34.1262 40.2713C33.6392 40.2938 33.05 39.99 31.8717 39.3848L18 32.25L4.12833 39.3825C2.95 39.99 2.36083 40.2938 1.87083 40.2713C1.66035 40.2614 1.45514 40.2165 1.26934 40.1396C1.08353 40.0627 0.921559 39.9556 0.794583 39.8258C0.5 39.5265 0.5 38.9797 0.5 37.8862V7.95Z" fill="#8E6BE1"/>
</svg>
