<svg width="43" height="39" viewBox="0 0 43 39" fill="none" xmlns="http://www.w3.org/2000/svg">
<path d="M10.75 10.075C10.75 8.255 10.75 7.345 11.1406 6.6495C11.4841 6.038 12.0323 5.54083 12.7065 5.22925C13.4733 4.875 14.4767 4.875 16.4833 4.875H26.5167C28.5233 4.875 29.5267 4.875 30.2935 5.22925C30.9677 5.54083 31.5159 6.038 31.8594 6.6495C32.25 7.345 32.25 8.255 32.25 10.075V31.6956C32.25 32.4854 32.25 32.8803 32.069 33.0964C31.9908 33.1904 31.8911 33.2678 31.7766 33.3234C31.6621 33.3789 31.5357 33.4113 31.4061 33.4181C31.1069 33.4344 30.745 33.215 30.0212 32.7779L21.5 27.625L12.9788 32.7763C12.255 33.215 11.8931 33.4344 11.5921 33.4181C11.4628 33.411 11.3367 33.3786 11.2226 33.3231C11.1085 33.2675 11.009 33.1902 10.931 33.0964C10.75 32.8803 10.75 32.4854 10.75 31.6956V10.075Z" fill="white" stroke="white" stroke-width="1.5" stroke-linecap="round" stroke-linejoin="round"/>
<path opacity="0.5" d="M10.75 10.075C10.75 8.255 10.75 7.345 11.1406 6.6495C11.4841 6.038 12.0323 5.54083 12.7065 5.22925C13.4733 4.875 14.4767 4.875 16.4833 4.875H26.5167C28.5233 4.875 29.5267 4.875 30.2935 5.22925C30.9677 5.54083 31.5159 6.038 31.8594 6.6495C32.25 7.345 32.25 8.255 32.25 10.075V31.6956C32.25 32.4854 32.25 32.8803 32.069 33.0964C31.9908 33.1904 31.8911 33.2678 31.7766 33.3234C31.6621 33.3789 31.5357 33.4113 31.4061 33.4181C31.1069 33.4344 30.745 33.215 30.0212 32.7779L21.5 27.625L12.9788 32.7763C12.255 33.215 11.8931 33.4344 11.5921 33.4181C11.4628 33.411 11.3367 33.3786 11.2226 33.3231C11.1085 33.2675 11.009 33.1902 10.931 33.0964C10.75 32.8803 10.75 32.4854 10.75 31.6956V10.075Z" fill="white"/>
</svg>
