<svg width="29" height="29" viewBox="0 0 29 29" fill="none" xmlns="http://www.w3.org/2000/svg">
<path d="M1.52003 0.00017585C1.49418 -0.000213204 1.46833 4.33429e-05 1.4425 0.000945115C1.1406 0.0110088 0.932856 0.112094 0.791247 0.25305C0.602435 0.440991 0.484717 0.745914 0.56019 1.2341C0.635793 1.72228 0.926159 2.37213 1.54366 3.08922C5.91584 8.16657 10.1043 13.0606 13.3736 16.6765C14.1639 17.5505 14.8994 18.3481 15.5712 19.0568C16.35 17.0118 17.7974 15.5861 19.6219 14.9085C18.9248 14.2548 18.1448 13.5424 17.2909 12.7773C13.6584 9.52312 8.74152 5.35386 3.64069 1.00187C2.92034 0.387147 2.26742 0.0981847 1.77697 0.0229314C1.69193 0.00965666 1.60609 0.00205447 1.52003 0.00017585ZM25.676 0.0670321C25.6561 0.0668185 25.6373 0.0673098 25.6196 0.0685064C25.4772 0.077929 25.4045 0.110428 25.3249 0.189719L23.5489 1.9576L27.1007 5.49296L28.8767 3.72509C28.9564 3.64586 28.9891 3.57368 28.9984 3.43189C29.0081 3.29023 28.9746 3.08357 28.8822 2.84448C28.6974 2.3663 28.2848 1.77613 27.7839 1.27756C27.2831 0.77899 26.6902 0.368302 26.2097 0.184335C25.9996 0.10389 25.8145 0.0683141 25.6761 0.0670321H25.676ZM22.7293 2.77333L22.0917 3.40798L22.7293 4.04244L23.5489 4.85837L24.1864 5.49283L25.0061 6.30876L25.6435 6.94335L26.281 6.30876L22.7293 2.77333ZM21.2722 4.22378L15.6446 9.82548L16.3186 10.4237L21.9097 4.85837L21.2722 4.22378ZM22.7293 5.6743L17.1852 11.1927L17.8594 11.7908L23.3668 6.30876L22.7293 5.6743ZM24.1865 7.1245L18.726 12.5598L19.4001 13.158L24.8241 7.75915L24.1866 7.12456H24.1865V7.1245ZM10.4147 15.0312L2.69373 22.7167L3.33113 23.3512L11.0164 15.7014L10.4147 15.0312ZM20.5676 15.8098C18.606 16.2987 17.1391 17.6805 16.4714 19.9903C16.8354 20.3611 17.177 20.7009 17.4876 20.9971C17.9757 21.4628 18.3954 21.8309 18.7247 22.0841C18.8391 20.9799 19.3715 19.9648 20.1186 19.2194C20.8012 18.5381 21.696 18.0652 22.6381 17.9956C22.3889 17.6856 22.0496 17.3065 21.6316 16.8724C21.3201 16.5489 20.9609 16.1914 20.5676 15.8098ZM11.7901 16.5629L4.15071 24.1669L4.78825 24.8016L12.3919 17.2331L11.7901 16.5629ZM13.1657 18.0945L5.60796 25.6173L6.24523 26.2519L13.7675 18.7647L13.1657 18.0945ZM22.8441 19.1398C22.1746 19.1486 21.4963 19.4782 20.9391 20.0343C20.1962 20.7756 19.7365 21.8836 19.8916 22.9637C20.235 25.3573 21.421 27.1821 23.0766 28.1709C24.5403 29.045 26.39 29.2831 28.463 28.6185C26.9032 28.3615 25.4701 26.6504 25.3593 25.3719C26.0438 26.1933 26.9009 26.9454 27.8338 27.4071C27.1975 25.9599 27.2413 24.4936 27.1197 23.2841C27.0327 22.4173 26.8692 21.6827 26.3871 21.0302C25.905 20.3777 25.0719 19.761 23.506 19.2414C23.2927 19.1707 23.0689 19.1363 22.8441 19.1398ZM2.08569 23.7432L2.0855 23.7433L2.08563 23.7434L2.08569 23.7432ZM2.08563 23.7434L1.30533 25.6857L3.26249 27.634L5.21404 26.8571L4.78837 26.4333L3.96847 25.6175L3.33107 24.983L2.51129 24.1671L2.08563 23.7434ZM0.836647 26.8513L0 28.933L2.09149 28.1002L0.836647 26.8513Z" fill="white"/>
</svg>
