<svg width="35" height="35" viewBox="0 0 35 35" fill="none" xmlns="http://www.w3.org/2000/svg">
<path d="M22.4583 20.3333H21.3392L20.9425 19.9508C22.3789 18.2849 23.1684 16.158 23.1667 13.9583C23.1667 12.1371 22.6266 10.3568 21.6148 8.84246C20.603 7.32816 19.1648 6.1479 17.4822 5.45095C15.7996 4.75399 13.9481 4.57163 12.1619 4.92694C10.3756 5.28225 8.73487 6.15925 7.44706 7.44706C6.15925 8.73487 5.28225 10.3756 4.92694 12.1619C4.57163 13.9481 4.75399 15.7996 5.45095 17.4822C6.1479 19.1648 7.32816 20.603 8.84246 21.6148C10.3568 22.6266 12.1371 23.1667 13.9583 23.1667C16.2392 23.1667 18.3358 22.3308 19.9508 20.9425L20.3333 21.3392V22.4583L27.4167 29.5275L29.5275 27.4167L22.4583 20.3333ZM13.9583 20.3333C10.4308 20.3333 7.58334 17.4858 7.58334 13.9583C7.58334 10.4308 10.4308 7.58334 13.9583 7.58334C17.4858 7.58334 20.3333 10.4308 20.3333 13.9583C20.3333 17.4858 17.4858 20.3333 13.9583 20.3333Z" fill="#F8F8F8"/>
</svg>
