<svg width="31" height="25" viewBox="0 0 31 25" fill="none" xmlns="http://www.w3.org/2000/svg">
<path fill-rule="evenodd" clip-rule="evenodd" d="M18.2259 2.652C17.7687 2.5 17.188 2.5 16.0277 2.5C14.8674 2.5 14.2879 2.5 13.8295 2.652C13.5278 2.75175 13.2535 2.89878 13.0224 3.08465C12.7912 3.27051 12.6078 3.49154 12.4826 3.735C12.3664 3.958 12.322 4.219 12.3034 4.598C12.2946 4.8725 12.1997 5.14068 12.0277 5.37736C11.8556 5.61403 11.612 5.81142 11.3198 5.951C11.0217 6.0851 10.6866 6.15615 10.3456 6.15754C10.0045 6.15894 9.66852 6.09065 9.36875 5.959C8.95109 5.781 8.64836 5.683 8.34933 5.651C7.69515 5.58192 7.03368 5.7242 6.5082 6.047C6.11526 6.289 5.82488 6.693 5.24536 7.5C4.6646 8.307 4.37546 8.71 4.30997 9.105C4.22347 9.631 4.40141 10.163 4.80423 10.584C4.98711 10.776 5.24536 10.937 5.64448 11.139C6.23389 11.436 6.612 11.942 6.612 12.5C6.612 13.058 6.23389 13.564 5.64571 13.86C5.24536 14.063 4.98711 14.224 4.803 14.416C4.60476 14.6242 4.45917 14.862 4.37458 15.1158C4.28998 15.3696 4.26803 15.6343 4.30997 15.895C4.37546 16.289 4.6646 16.693 5.24536 17.5C5.82612 18.307 6.11526 18.71 6.5082 18.953C7.03212 19.276 7.69443 19.418 8.34933 19.349C8.64836 19.317 8.95109 19.219 9.36875 19.041C9.66867 18.9092 10.0049 18.8408 10.3462 18.8422C10.6875 18.8436 11.0228 18.9147 11.3211 19.049C11.9216 19.329 12.2775 19.844 12.3034 20.402C12.322 20.782 12.3664 21.042 12.4826 21.265C12.7347 21.755 13.219 22.145 13.8295 22.348C14.2867 22.5 14.8674 22.5 16.0277 22.5C17.188 22.5 17.7687 22.5 18.2259 22.348C18.5276 22.2483 18.8019 22.1012 19.033 21.9154C19.2641 21.7295 19.4476 21.5085 19.5728 21.265C19.6889 21.042 19.7334 20.782 19.752 20.402C19.7767 19.844 20.1338 19.328 20.7355 19.049C21.0337 18.9149 21.3688 18.8439 21.7098 18.8425C22.0509 18.8411 22.3869 18.9093 22.6866 19.041C23.1043 19.219 23.407 19.317 23.7061 19.349C24.361 19.419 25.0233 19.276 25.5472 18.953C25.9401 18.711 26.2305 18.307 26.81 17.5C27.3908 16.693 27.6799 16.29 27.7454 15.895C27.7872 15.6343 27.765 15.3695 27.6802 15.1157C27.5954 14.8619 27.4496 14.6241 27.2512 14.416C27.0683 14.224 26.81 14.063 26.4109 13.861C25.8215 13.564 25.4434 13.058 25.4434 12.5C25.4434 11.942 25.8215 11.436 26.4097 11.14C26.81 10.937 27.0683 10.776 27.2524 10.584C27.4506 10.3758 27.5962 10.138 27.6808 9.88422C27.7654 9.63044 27.7874 9.36565 27.7454 9.105C27.6799 8.711 27.3908 8.307 26.81 7.5C26.2293 6.693 25.9401 6.29 25.5472 6.047C25.0217 5.7242 24.3602 5.58192 23.7061 5.651C23.407 5.683 23.1043 5.781 22.6866 5.959C22.3867 6.09083 22.0505 6.15922 21.7092 6.15782C21.3679 6.15642 21.0326 6.08528 20.7343 5.951C20.4423 5.8113 20.199 5.61385 20.0272 5.37719C19.8554 5.14052 19.7607 4.87241 19.752 4.598C19.7334 4.218 19.6889 3.958 19.5728 3.735C19.4476 3.49154 19.2641 3.27051 19.033 3.08465C18.8019 2.89878 18.5276 2.75175 18.2259 2.652ZM16.0277 15.5C18.0912 15.5 19.7631 14.157 19.7631 12.5C19.7631 10.843 18.09 9.5 16.0277 9.5C13.9654 9.5 12.2923 10.843 12.2923 12.5C12.2923 14.157 13.9654 15.5 16.0277 15.5Z" fill="white"/>
</svg>
