<svg width="36" height="22" viewBox="0 0 36 22" fill="none" xmlns="http://www.w3.org/2000/svg">
<path d="M4.71716 4.17063C4.71716 2.88124 6.41527 1.83478 8.50757 1.83478H13.9224C14.3533 1.83478 14.7665 1.94025 15.0711 2.12799C15.3758 2.31573 15.5469 2.57036 15.5469 2.83586C15.5469 3.10136 15.3758 3.35599 15.0711 3.54373C14.7665 3.73147 14.3533 3.83694 13.9224 3.83694H8.50757C8.36396 3.83694 8.22623 3.8721 8.12468 3.93468C8.02313 3.99726 7.96609 4.08213 7.96609 4.17063V18.1858C7.96609 18.37 8.20867 18.5195 8.50757 18.5195H13.9224C14.3533 18.5195 14.7665 18.6249 15.0711 18.8127C15.3758 19.0004 15.5469 19.255 15.5469 19.5205C15.5469 19.786 15.3758 20.0407 15.0711 20.2284C14.7665 20.4161 14.3533 20.5216 13.9224 20.5216H8.50757C7.50229 20.5216 6.53819 20.2755 5.82735 19.8375C5.11651 19.3994 4.71716 18.8053 4.71716 18.1858V4.17063ZM27.3297 10.1771L23.0627 7.54761C22.8489 7.42525 22.6926 7.26961 22.6103 7.09709C22.5279 6.92458 22.5226 6.74157 22.5949 6.56735C22.6672 6.39313 22.8144 6.23415 23.021 6.10716C23.2276 5.98017 23.4859 5.88987 23.7688 5.84577C24.0512 5.80132 24.3479 5.8045 24.6276 5.85499C24.9073 5.90548 25.1598 6.00142 25.3586 6.13275L32.398 10.4708C32.7022 10.6585 32.8731 10.9129 32.8731 11.1782C32.8731 11.4435 32.7022 11.6979 32.398 11.8856L25.3586 16.2236C25.1601 16.3554 24.9075 16.4518 24.6276 16.5025C24.3476 16.5532 24.0507 16.5565 23.768 16.512C23.4853 16.4674 23.2273 16.3767 23.0212 16.2494C22.8151 16.1221 22.6686 15.9628 22.5971 15.7885C22.5249 15.6145 22.5301 15.4317 22.612 15.2593C22.694 15.0869 22.8496 14.9313 23.0627 14.8088L27.3297 12.1793H15.0054C14.5746 12.1793 14.1614 12.0738 13.8567 11.8861C13.5521 11.6983 13.381 11.4437 13.381 11.1782C13.381 10.9127 13.5521 10.6581 13.8567 10.4703C14.1614 10.2826 14.5746 10.1771 15.0054 10.1771H27.3297Z" fill="white"/>
</svg>
