<svg width="34" height="36" viewBox="0 0 34 36" fill="none" xmlns="http://www.w3.org/2000/svg">
<path d="M23.4983 20.0483L23.49 20.045C23.385 20 23.2833 19.9483 23.1766 19.9067C24.367 18.9733 25.3297 17.7817 25.992 16.4218C26.6543 15.0619 26.999 13.5693 27 12.0567C26.9971 11.7054 26.9721 11.3547 26.925 11.0067C26.9504 10.9403 26.9715 10.8724 26.9883 10.8033L27.4566 6.80832C27.6028 5.54587 27.2636 4.27506 26.508 3.25325C25.7523 2.23144 24.6365 1.53501 23.3866 1.30499L22.07 1.06666C18.7183 0.453449 15.2833 0.453449 11.9316 1.06666L10.6133 1.30499C9.3634 1.53501 8.24763 2.23144 7.49195 3.25325C6.73627 4.27506 6.39716 5.54587 6.54329 6.80832L7.00996 10.8033C7.02726 10.8724 7.04897 10.9403 7.07496 11.0067C7.02785 11.3547 7.0028 11.7054 6.99996 12.0567C7.00091 13.5693 7.34557 15.0619 8.00791 16.4218C8.67025 17.7817 9.63295 18.9733 10.8233 19.9067C10.7166 19.9483 10.615 20 10.51 20.045L10.5016 20.0483C7.77338 21.1955 5.40185 23.0519 3.63317 25.4249C1.86448 27.7979 0.763089 30.601 0.443291 33.5433C0.401795 33.9794 0.533633 34.4142 0.810286 34.7539C1.08694 35.0935 1.48617 35.3105 1.92161 35.358C2.35706 35.4056 2.79371 35.2798 3.13711 35.0078C3.48052 34.7359 3.70307 34.3397 3.75662 33.905C3.99146 31.7419 4.75536 29.6699 5.98085 27.8721C7.20635 26.0743 8.85572 24.6059 10.7833 23.5967L15.8216 28.635C16.1342 28.9474 16.558 29.123 17 29.123C17.4419 29.123 17.8657 28.9474 18.1783 28.635L23.2166 23.5967C25.1442 24.6059 26.7936 26.0743 28.0191 27.8721C29.2446 29.6699 30.0085 31.7419 30.2433 33.905C30.2876 34.3128 30.4808 34.69 30.7858 34.9643C31.0909 35.2386 31.4864 35.3908 31.8966 35.3917C31.9579 35.3917 32.0191 35.3884 32.08 35.3817C32.2977 35.358 32.5086 35.2917 32.7006 35.1865C32.8927 35.0812 33.0621 34.9392 33.1992 34.7685C33.3364 34.5978 33.4385 34.4017 33.4998 34.1915C33.5612 33.9812 33.5805 33.761 33.5566 33.5433C33.2367 30.6008 32.135 27.7976 30.366 25.4246C28.597 23.0516 26.2252 21.1953 23.4966 20.0483H23.4983ZM9.85329 6.41832C9.80407 5.99754 9.91693 5.57381 10.1689 5.23326C10.4209 4.89272 10.7932 4.66092 11.21 4.58499L12.5266 4.34665C15.4843 3.80502 18.5157 3.80502 21.4733 4.34665L22.79 4.58499C23.2067 4.66092 23.579 4.89272 23.831 5.23326C24.083 5.57381 24.1958 5.99754 24.1466 6.41832L23.85 8.94166H10.15L9.85329 6.41832ZM17 25.1017L14.25 22.35C16.0626 21.9603 17.9373 21.9603 19.75 22.35L17 25.1017ZM17 18.725C15.27 18.7229 13.6083 18.0493 12.3653 16.8461C11.1223 15.6428 10.3949 14.004 10.3366 12.275H23.6633C23.605 14.004 22.8777 15.6428 21.6346 16.8461C20.3916 18.0493 18.73 18.7229 17 18.725Z" fill="#8E6BE1"/>
</svg>
